<svg width="22px" height="22px" viewBox="0 0 22 22" version="1.1" xmlns="http://www.w3.org/2000/svg" xmlns:xlink="http://www.w3.org/1999/xlink">
    <!-- Generator: Sketch 48.2 (47327) - http://www.bohemiancoding.com/sketch -->
    <desc>Created with Sketch.</desc>
    <defs></defs>
    <g id="Page-1" stroke="none" stroke-width="1" fill="none" fill-rule="evenodd" stroke-linecap="round" stroke-linejoin="round">
        <g id="feather-icon" transform="translate(-96.000000, -753.000000)" stroke="#FFFFFF" stroke-width="2">
            <g id="thumbs-up" transform="translate(97.000000, 754.000000)">
                <path d="M12,7 L12,3 C12,1.34314575 10.6568542,4.4408921e-16 9,-4.4408921e-16 L5,9 L5,20.0001297 L16.28,20 C17.2772867,20.0112744 18.1304612,19.2860761 18.28,18.3 L19.66,9.3 C19.748056,8.71985532 19.5768972,8.1303088 19.1918585,7.68751434 C18.8068198,7.24471987 18.2467517,6.99335535 17.66,7 L12,7 Z M5,20 L2,20 C0.8954305,20 0,19.1045695 0,18 L0,11 C-2.22044605e-16,9.8954305 0.8954305,9 2,9 L5,9 L5,20 Z" id="Shape"></path>
            </g>
        </g>
    </g>
</svg>
