<svg width="464px" height="735px" viewBox="0 0 464 735" version="1.1" xmlns="http://www.w3.org/2000/svg" xmlns:xlink="http://www.w3.org/1999/xlink">
    <!-- Generator: Sketch 48.2 (47327) - http://www.bohemiancoding.com/sketch -->
    <desc>Created with Sketch.</desc>
    <defs>
        <path d="M418.666429,538.028316 C421.775013,549.721653 422.503964,556.776212 425.443865,562.740356 C434.697325,581.536447 431.492351,599.471051 416.256673,608.983559 C401.7138,618.068337 381.224856,613.393412 371.989469,598.886685 C361.922717,583.060617 367.549495,565.385063 385.863635,552.101287 C390.833755,548.498703 394.056803,542.486363 401.406557,533.522074 C365.934959,541.450169 352.392135,555.920749 351.783672,580.855691 C351.223403,603.501366 366.043398,622.574579 388.291464,627.839894 C410.419041,633.081112 432.721326,622.387823 441.93864,602.115757 C452.409026,579.102594 446.66176,559.987211 418.666429,538.028316 M80.6801814,464.193415 C68.9506977,512.033081 56.5585313,557.48709 46.8893883,603.507391 C37.7805135,646.876961 64.1372116,688.728385 106.627221,703.012209 C146.689402,716.476717 192.257874,697.036016 211.282892,657.636518 C216.090353,647.684229 219.427864,636.834306 222.096668,626.0627 C244.182075,536.925853 265.821677,447.680567 287.876962,358.537696 C301.829445,302.13135 344.361625,273.62997 394.996608,286.220941 C445.131566,298.679376 469.608655,344.446652 456.029684,400.605998 C447.20998,437.083669 437.402276,473.350485 429.883839,510.093228 C428.311474,517.798421 432.444204,529.491758 438.09508,535.341439 C459.084049,557.047309 465.37351,585.476397 452.005392,609.658291 C438.540885,634.014892 411.401016,646.262473 385.056367,639.870597 C358.952693,633.532941 339.813212,609.477559 339.264993,582.301544 C338.710749,554.607432 356.928499,529.762856 386.267269,523.895102 C400.454703,521.057615 403.894629,514.021129 406.617652,502.327792 C415.292771,464.994659 424.949865,427.890452 433.751496,390.587441 C443.245932,350.350553 424.660695,317.78271 387.88783,309.240128 C352.241525,300.956594 321.96295,320.969612 312.155246,360.435378 C289.045694,453.427834 266.894018,546.661264 243.429027,639.563354 C224.313643,715.241717 151.526986,751.213339 84.0478143,719.422643 C37.7865379,697.632431 12.5021809,645.244352 24.3521524,593.344248 C34.4671,549.022824 45.859218,504.984547 57.2573603,458.476271 C9.97796228,436.933059 0.826916708,396.931122 2.36916007,349.699919 C5.52593945,252.948245 6.2609148,156.118255 8.35740187,59.3304353 C8.88754803,34.8714195 25.1112253,22.4129849 46.154413,15.3704751 C62.3238707,9.96057459 78.7282796,4.43018629 95.4700542,1.9360896 C102.175198,0.936041174 113.567316,6.13508813 116.440949,11.767891 C119.302534,17.3826208 116.687949,30.0880553 111.838317,34.1424685 C106.994709,38.1908574 92.2048359,38.8234181 89.0480565,34.9738341 C73.3244035,15.8403774 56.6850434,23.5274967 40.0637566,30.7025429 C22.6472505,38.2209793 20.1350807,54.0349981 20.2073733,70.8008703 C20.4724464,134.575043 19.9663978,198.361265 21.1110315,262.123389 C21.8279337,302.432569 24.4364938,342.735726 27.1956636,382.972614 C29.0331019,409.781142 47.9135343,431.167719 73.4448912,438.0054 C99.6931503,445.029837 127.339067,434.758255 142.159062,411.094458 C151.020937,396.937146 157.918862,381.562908 166.009615,366.905571 C207.824893,291.154915 249.94139,215.566917 291.515693,139.683724 C306.4622,112.411319 302.793347,94.0489841 278.484941,77.9096483 C272.008724,73.6082352 261.550386,75.7890637 253.339145,73.4877474 C244.465221,70.9996751 233.000811,68.8911393 228.566861,62.5113122 C225.639009,58.2882162 231.494714,41.2934173 236.272054,39.9138324 C243.820612,37.7330039 254.724754,42.2693681 262.441996,46.9021226 C270.7677,51.9023647 276.442674,61.1136542 284.352695,67.0416521 C314.046904,89.3017663 319.60139,110.899198 302.799372,143.304381 C276.38243,194.258656 249.206415,244.839419 223.578668,296.185279 C205.63804,332.138827 189.854143,369.164717 172.883442,405.606241 C155.087399,443.837008 126.140214,465.362146 80.6801814,464.193415" id="path-1"></path>
        <filter x="-0.9%" y="-0.5%" width="102.2%" height="101.4%" filterUnits="objectBoundingBox" id="filter-2">
            <feOffset dx="1" dy="1" in="SourceAlpha" result="shadowOffsetOuter1"></feOffset>
            <feGaussianBlur stdDeviation="1.5" in="shadowOffsetOuter1" result="shadowBlurOuter1"></feGaussianBlur>
            <feColorMatrix values="0 0 0 0 0   0 0 0 0 0   0 0 0 0 0  0 0 0 0.5 0" type="matrix" in="shadowBlurOuter1"></feColorMatrix>
        </filter>
    </defs>
    <g id="Page-1" stroke="none" stroke-width="1" fill="none" fill-rule="evenodd">
        <g id="Fill-389">
            <use fill="black" fill-opacity="1" filter="url(#filter-2)" xlink:href="#path-1"></use>
            <use fill="#E02317" fill-rule="evenodd" xlink:href="#path-1"></use>
        </g>
    </g>
</svg>
