
<svg width="217px" height="513px" viewBox="0 0 217 513" version="1.1" xmlns="http://www.w3.org/2000/svg" xmlns:xlink="http://www.w3.org/1999/xlink">
    <!-- Generator: Sketch 48.2 (47327) - http://www.bohemiancoding.com/sketch -->
    <desc>Created with Sketch.</desc>
    <defs></defs>
    <g id="Page-1" stroke="none" stroke-width="1" fill="none" fill-rule="evenodd">
        <g id="Group-3">
            <path d="M2.76450547,16.8565384 L213.604349,0.254766561 C215.256091,0.124706526 216.700526,1.35827318 216.830587,3.01001481 C216.836756,3.08836143 216.839844,3.16692021 216.839844,3.24550933 L216.839844,509.437892 C216.839844,511.094746 215.496698,512.437892 213.839844,512.437892 C213.699693,512.437892 213.559715,512.428071 213.420937,512.408501 L2.58109336,482.676478 C1.10073354,482.467722 -9.14278792e-15,481.200876 -9.32587341e-15,479.705869 L0,19.8472812 C-1.91721471e-16,18.2817566 1.20381166,16.9794292 2.76450547,16.8565384 Z" id="Rectangle" fill="#E85A51"></path>
            <g id="Group-2" transform="translate(58.000000, 209.000000)" fill="#FFFFFF">
                <path d="M67.2700358,47.9879099 C67.548234,49.0343882 67.6134704,49.6657256 67.8765726,50.199478 C68.7046976,51.8816068 68.417873,53.4866381 67.0543782,54.3379463 C65.752885,55.1509752 63.9192567,54.7325996 63.0927492,53.4343412 C62.1918398,52.0180102 62.6954001,50.4361622 64.3343975,49.24735 C64.7791911,48.9249419 65.0676331,48.3868764 65.7253886,47.5846303 C62.5509096,48.2941436 61.3389142,49.5891672 61.2844607,51.8206836 C61.2343203,53.8473253 62.5606142,55.5542548 64.5516724,56.0254665 C66.5319478,56.4945217 68.5278584,55.5375413 69.3527485,53.7233223 C70.2897805,51.6637927 69.7754373,49.9530893 67.2700358,47.9879099 M37.0224481,41.3801628 C35.972735,45.6615042 34.8637161,49.7293446 33.9983902,53.8478645 C33.1832047,57.7291611 35.541959,61.4745935 39.3445407,62.7529035 C42.9298473,63.9578901 47.0079314,62.2180728 48.7105477,58.692072 C49.1407845,57.8014064 49.4394702,56.8304083 49.6783109,55.8664191 C51.6548123,47.8892466 53.591417,39.9023695 55.5652227,31.9246579 C56.8138798,26.876654 60.6202355,24.3259644 65.1517396,25.4527751 C69.6384947,26.5677246 71.8290362,30.6636004 70.6138059,35.6894995 C69.8244993,38.9540155 68.9467731,42.1996615 68.2739216,45.4878999 C68.1332051,46.1774649 68.5030578,47.2239431 69.0087747,47.7474518 C70.8871519,49.6899871 71.4500181,52.2342069 70.2536579,54.3983304 C69.0486713,56.578089 66.6198283,57.6741684 64.2621522,57.1021368 C61.9260419,56.5349575 60.2131818,54.382156 60.1641198,51.9500781 C60.1145185,49.4716338 61.7448895,47.2482046 64.3705201,46.7230784 C65.6402039,46.4691417 65.948055,45.8394217 66.191748,44.7929434 C66.9681152,41.451869 67.8323628,38.131282 68.620052,34.7929032 C69.4697427,31.1919614 67.8064839,28.2773497 64.5155498,27.5128438 C61.3254356,26.771521 58.6156986,28.5625568 57.7379724,32.0944882 C55.6698166,40.4167128 53.6873846,48.7605031 51.5874193,57.0746405 C49.8767159,63.8473656 43.3627798,67.0665935 37.3238295,64.2215314 C33.1837438,62.2714481 30.9209571,57.5830531 31.981453,52.9383288 C32.8866756,48.9718475 33.9061966,45.0307059 34.9262568,40.8685153 C30.6950558,38.9405369 29.8760963,35.3606217 30.0141171,31.1337339 C30.2966285,22.4750836 30.362404,13.8094244 30.5500261,5.14753923 C30.5974708,2.95861518 32.0493852,1.84366568 33.9326146,1.21340652 C35.3796767,0.729255336 36.8477655,0.234321277 38.3460462,0.0111157213 C38.9461133,-0.0783821586 39.9656344,0.386898988 40.222806,0.890998492 C40.4788993,1.39348057 40.2449109,2.53053495 39.8109001,2.89337877 C39.3774284,3.25568344 38.0538303,3.31229354 37.7713189,2.96778062 C36.3641534,1.25545974 34.8750381,1.9434073 33.3875402,2.58552763 C31.8288753,3.25837916 31.6040523,4.67363178 31.6105221,6.17406913 C31.6342444,11.881446 31.5889563,17.5899011 31.6913936,23.2961997 C31.7555518,26.9036112 31.989001,30.5104836 32.2359289,34.1114254 C32.4003678,36.5106155 34.0900446,38.4245762 36.3749363,39.0365045 C38.7239861,39.6651462 41.1981172,38.745906 42.5244111,36.6281489 C43.3174917,35.3611608 43.9348114,33.9852657 44.6588816,32.6735287 C48.4010791,25.8943339 52.1702338,19.129696 55.8908656,12.33864 C57.2284815,9.89793573 56.9001429,8.25462526 54.7246974,6.81025887 C54.1451178,6.42531016 53.209164,6.62048024 52.474311,6.41452728 C51.6801521,6.19186087 50.6541613,6.00316052 50.2573514,5.43220718 C49.9953275,5.05426734 50.5193753,3.53334252 50.9469164,3.40987858 C51.6224637,3.21470851 52.598314,3.62068383 53.2889573,4.03528545 C54.0340541,4.48277485 54.5419276,5.30712581 55.2498235,5.83764336 C57.9072636,7.8297799 58.4043542,9.76261062 56.900682,12.6626654 C54.5365362,17.2227441 52.1044583,21.7493959 49.8109403,26.344519 C48.2053699,29.5621295 46.792813,32.8757077 45.2740448,36.1369889 C43.6814138,39.5583958 41.0908276,41.4847568 37.0224481,41.3801628" id="Fill-389"></path>
                <g id="Group" transform="translate(0.000000, 82.000000)">
                    <path d="M1.95694513,0.831546426 L98.0095767,0.0168816586 C99.0995732,0.00763691722 99.9906843,0.883759313 99.999929,1.9737558 C99.9999763,1.97933537 100,1.98491511 100,1.99049488 L100,10.9934377 C100,12.0834734 99.1163515,12.9671219 98.0263158,12.9671219 C98.0154471,12.9671219 98.0045787,12.9670321 97.9937115,12.9668526 L1.9410799,11.379893 C0.863902899,11.3620961 1.23443874e-14,10.4838021 1.22124533e-14,9.40647812 L3.10862447e-15,2.80515965 C2.97593346e-15,1.72165533 0.873479775,0.840735773 1.95694513,0.831546426 Z" id="Rectangle-2" fill-opacity="0.5"></path>
                    <path d="M1.96006203,0.835626663 L74.0126936,0.338314527 C75.1027033,0.330791206 75.9924297,1.20831982 75.999953,2.29832955 C75.9999843,2.30287021 76,2.30741096 76,2.31195173 L76,10.568444 C76,11.6584797 75.1163515,12.5421282 74.0263158,12.5421282 C74.0158234,12.5421282 74.0053312,12.5420445 73.9948402,12.5418772 L1.94220864,11.3926629 C0.864582303,11.3754751 3.53172479e-15,10.496993 2.44249065e-15,9.41922964 L0,2.80926386 C-6.14552138e-16,1.72454421 0.875368218,0.843113293 1.96006203,0.835626663 Z" id="Rectangle-2"></path>
                </g>
            </g>
        </g>
    </g>
</svg>
